<svg xmlns="http://www.w3.org/2000/svg" xmlns:xlink="http://www.w3.org/1999/xlink" width="500" zoomAndPan="magnify" viewBox="0 0 375 374.999991" height="500" preserveAspectRatio="xMidYMid meet" version="1.0"><defs><clipPath id="id1"><path d="M 17.84375 17.84375 L 356.84375 17.84375 L 356.84375 356.84375 L 17.84375 356.84375 Z M 17.84375 17.84375 " clip-rule="nonzero"/></clipPath><clipPath id="id2"><path d="M 15.421875 15.421875 L 359.671875 15.421875 L 359.671875 359.671875 L 15.421875 359.671875 Z M 15.421875 15.421875 " clip-rule="nonzero"/></clipPath><clipPath id="id3"><path d="M 60.484375 60.484375 L 314.734375 60.484375 L 314.734375 314.734375 L 60.484375 314.734375 Z M 60.484375 60.484375 " clip-rule="nonzero"/></clipPath></defs><g clip-path="url(#id1)"><path fill="#e2b66c" d="M 17.84375 188.289062 C 17.84375 272.566406 79.050781 342.636719 159.09375 356.84375 L 159.09375 234.425781 L 116.71875 234.425781 L 116.71875 187.34375 L 159.09375 187.34375 L 159.09375 149.675781 C 159.09375 107.300781 186.402344 83.757812 225.011719 83.757812 C 237.25 83.757812 250.433594 85.644531 262.675781 87.527344 L 262.675781 130.84375 L 241.019531 130.84375 C 220.300781 130.84375 215.59375 141.199219 215.59375 154.382812 L 215.59375 187.34375 L 260.792969 187.34375 L 253.261719 234.425781 L 215.59375 234.425781 L 215.59375 356.84375 C 295.636719 342.636719 356.84375 272.566406 356.84375 188.289062 C 356.84375 94.542969 280.566406 17.84375 187.34375 17.84375 C 94.117188 17.84375 17.84375 94.542969 17.84375 188.289062 Z M 17.84375 188.289062 " fill-opacity="1" fill-rule="evenodd"/></g><g clip-path="url(#id2)"><path fill="#e2b66c" d="M 187.546875 15.421875 C 92.488281 15.421875 15.421875 92.488281 15.421875 187.546875 C 15.421875 282.609375 92.488281 359.671875 187.546875 359.671875 C 282.609375 359.671875 359.671875 282.609375 359.671875 187.546875 C 359.671875 92.488281 282.609375 15.421875 187.546875 15.421875 " fill-opacity="1" fill-rule="nonzero"/></g><g clip-path="url(#id3)"><path fill="#ffffff" d="M 60.484375 188.320312 C 60.484375 251.527344 106.390625 304.082031 166.421875 314.734375 L 166.421875 222.921875 L 134.640625 222.921875 L 134.640625 187.609375 L 166.421875 187.609375 L 166.421875 159.359375 C 166.421875 127.578125 186.902344 109.921875 215.859375 109.921875 C 225.039062 109.921875 234.929688 111.332031 244.109375 112.746094 L 244.109375 145.234375 L 227.863281 145.234375 C 212.328125 145.234375 208.796875 153.003906 208.796875 162.890625 L 208.796875 187.609375 L 242.695312 187.609375 L 237.046875 222.921875 L 208.796875 222.921875 L 208.796875 314.734375 C 268.828125 304.082031 314.734375 251.527344 314.734375 188.320312 C 314.734375 118.007812 257.527344 60.484375 187.609375 60.484375 C 117.691406 60.484375 60.484375 118.007812 60.484375 188.320312 Z M 60.484375 188.320312 " fill-opacity="1" fill-rule="evenodd"/></g></svg>