<svg xmlns="http://www.w3.org/2000/svg" xmlns:xlink="http://www.w3.org/1999/xlink" width="500" zoomAndPan="magnify" viewBox="0 0 375 374.999991" height="500" preserveAspectRatio="xMidYMid meet" version="1.0"><defs><clipPath id="id1"><path d="M 20.234375 20.234375 L 354.734375 20.234375 L 354.734375 354.734375 L 20.234375 354.734375 Z M 20.234375 20.234375 " clip-rule="nonzero"/></clipPath><clipPath id="id2"><path d="M 15.421875 15.421875 L 359.671875 15.421875 L 359.671875 359.671875 L 15.421875 359.671875 Z M 15.421875 15.421875 " clip-rule="nonzero"/></clipPath><clipPath id="id3"><path d="M 76.210938 76.210938 L 298.960938 76.210938 L 298.960938 298.960938 L 76.210938 298.960938 Z M 76.210938 76.210938 " clip-rule="nonzero"/></clipPath></defs><path fill="#e2b66c" d="M 187.484375 150.414062 C 167.066406 150.414062 150.414062 167.066406 150.414062 187.484375 C 150.414062 207.902344 167.066406 224.554688 187.484375 224.554688 C 207.902344 224.554688 224.554688 207.902344 224.554688 187.484375 C 224.554688 167.066406 207.902344 150.414062 187.484375 150.414062 Z M 187.484375 150.414062 " fill-opacity="1" fill-rule="nonzero"/><path fill="#e2b66c" d="M 237.296875 96.546875 L 137.671875 96.546875 C 115.082031 96.546875 96.546875 114.9375 96.546875 137.671875 L 96.546875 237.296875 C 96.546875 259.886719 114.9375 278.421875 137.671875 278.421875 L 237.296875 278.421875 C 259.886719 278.421875 278.421875 260.03125 278.421875 237.296875 L 278.421875 137.671875 C 278.277344 114.9375 259.886719 96.546875 237.296875 96.546875 Z M 187.484375 243.234375 C 156.640625 243.234375 131.589844 218.183594 131.589844 187.339844 C 131.589844 156.496094 156.640625 131.445312 187.484375 131.445312 C 218.328125 131.445312 243.378906 156.496094 243.378906 187.339844 C 243.234375 218.183594 218.183594 243.234375 187.484375 243.234375 Z M 247.289062 140.855469 C 239.902344 140.855469 233.820312 134.773438 233.820312 127.390625 C 233.820312 120.003906 239.902344 113.921875 247.289062 113.921875 C 254.671875 113.921875 260.753906 120.003906 260.753906 127.390625 C 260.753906 134.917969 254.816406 140.855469 247.289062 140.855469 Z M 247.289062 140.855469 " fill-opacity="1" fill-rule="nonzero"/><g clip-path="url(#id1)"><path fill="#e2b66c" d="M 187.484375 20.234375 C 95.097656 20.234375 20.234375 95.097656 20.234375 187.484375 C 20.234375 279.871094 95.097656 354.734375 187.484375 354.734375 C 279.871094 354.734375 354.734375 279.871094 354.734375 187.484375 C 354.589844 95.097656 279.726562 20.234375 187.484375 20.234375 Z M 297.101562 237.296875 C 297.101562 270.3125 270.167969 297.246094 237.152344 297.246094 L 137.671875 297.246094 C 104.65625 297.246094 77.722656 270.3125 77.722656 237.296875 L 77.722656 137.671875 C 77.722656 104.65625 104.65625 77.722656 137.671875 77.722656 L 237.296875 77.722656 C 270.3125 77.722656 297.246094 104.65625 297.246094 137.671875 L 297.246094 237.296875 Z M 297.101562 237.296875 " fill-opacity="1" fill-rule="nonzero"/></g><g clip-path="url(#id2)"><path fill="#e2b66c" d="M 187.546875 15.421875 C 92.488281 15.421875 15.421875 92.488281 15.421875 187.546875 C 15.421875 282.609375 92.488281 359.671875 187.546875 359.671875 C 282.609375 359.671875 359.671875 282.609375 359.671875 187.546875 C 359.671875 92.488281 282.609375 15.421875 187.546875 15.421875 " fill-opacity="1" fill-rule="nonzero"/></g><g clip-path="url(#id3)"><path fill="#ffffff" d="M 141.960938 77.574219 C 100.921875 79.449219 79.371094 102.535156 77.582031 141.953125 C 76.214844 171.796875 76.214844 203.375 77.582031 233.21875 C 79.371094 272.636719 100.921875 295.71875 141.960938 297.59375 C 171.804688 298.949219 203.371094 298.949219 233.21875 297.59375 C 272.648438 295.789062 295.71875 274.269531 297.597656 233.21875 C 298.949219 203.359375 298.945312 171.8125 297.597656 141.953125 C 295.757812 101.773438 273.40625 79.410156 233.21875 77.574219 C 203.371094 76.21875 171.804688 76.21875 141.960938 77.574219 Z M 259.953125 128.503906 C 259.953125 135.839844 254.003906 141.789062 246.667969 141.789062 C 239.324219 141.789062 233.382812 135.839844 233.382812 128.503906 C 233.382812 121.171875 239.324219 115.226562 246.667969 115.226562 C 254.003906 115.226562 259.949219 121.171875 259.953125 128.503906 Z M 187.589844 224.476562 C 167.214844 224.476562 150.699219 207.960938 150.699219 187.585938 C 150.703125 167.210938 167.214844 150.695312 187.585938 150.695312 C 207.960938 150.695312 224.480469 167.210938 224.480469 187.585938 C 224.480469 207.957031 207.960938 224.476562 187.585938 224.476562 Z M 187.589844 130.753906 C 156.207031 130.753906 130.753906 156.199219 130.753906 187.585938 C 130.753906 218.972656 156.203125 244.417969 187.585938 244.417969 C 218.976562 244.417969 244.421875 218.972656 244.421875 187.585938 C 244.421875 156.199219 218.976562 130.753906 187.589844 130.753906 Z M 232.308594 97.496094 C 262.121094 98.859375 276.320312 113.046875 277.671875 142.867188 C 279.019531 172.09375 279.011719 203.078125 277.671875 232.308594 C 276.285156 262.980469 261.347656 276.351562 232.308594 277.671875 C 203.066406 279.003906 172.105469 279.003906 142.867188 277.671875 C 113.824219 276.351562 98.898438 262.980469 97.5 232.308594 C 96.164062 203.082031 96.164062 172.089844 97.5 142.867188 C 98.820312 113.816406 112.195312 98.902344 142.867188 97.496094 C 172.101562 96.164062 203.070312 96.160156 232.308594 97.496094 Z M 232.308594 97.496094 " fill-opacity="1" fill-rule="evenodd"/></g></svg>