<svg xmlns="http://www.w3.org/2000/svg" xmlns:xlink="http://www.w3.org/1999/xlink" width="500" zoomAndPan="magnify" viewBox="0 0 375 374.999991" height="500" preserveAspectRatio="xMidYMid meet" version="1.0"><defs><clipPath id="id1"><path d="M 15.121094 15.121094 L 360.121094 15.121094 L 360.121094 360.121094 L 15.121094 360.121094 Z M 15.121094 15.121094 " clip-rule="nonzero"/></clipPath><clipPath id="id2"><path d="M 15.421875 15.421875 L 359.671875 15.421875 L 359.671875 359.671875 L 15.421875 359.671875 Z M 15.421875 15.421875 " clip-rule="nonzero"/></clipPath><clipPath id="id3"><path d="M 81.792969 97.640625 L 293.292969 97.640625 L 293.292969 277.640625 L 81.792969 277.640625 Z M 81.792969 97.640625 " clip-rule="nonzero"/></clipPath></defs><g clip-path="url(#id1)"><path fill="#e2b66c" d="M 187.621094 360.121094 C 282.890625 360.121094 360.121094 282.890625 360.121094 187.621094 C 360.121094 92.351562 282.890625 15.121094 187.621094 15.121094 C 92.351562 15.121094 15.121094 92.351562 15.121094 187.621094 C 15.121094 282.890625 92.351562 360.121094 187.621094 360.121094 Z M 109.273438 114.234375 L 187.621094 176.910156 L 265.96875 114.234375 L 268.230469 112.347656 L 107.011719 112.347656 Z M 276.613281 127.136719 L 279.621094 124.628906 L 279.621094 254.53125 C 279.621094 259.148438 275.875 262.894531 271.257812 262.894531 L 103.984375 262.894531 C 99.367188 262.894531 95.621094 259.148438 95.621094 254.53125 L 95.621094 124.628906 L 98.628906 127.136719 L 98.761719 127.242188 L 182.398438 194.152344 C 185.449219 196.59375 189.789062 196.59375 192.84375 194.152344 L 276.484375 127.242188 Z M 276.613281 127.136719 " fill-opacity="1" fill-rule="evenodd"/></g><g clip-path="url(#id2)"><path fill="#e2b66c" d="M 187.546875 15.421875 C 92.488281 15.421875 15.421875 92.488281 15.421875 187.546875 C 15.421875 282.609375 92.488281 359.671875 187.546875 359.671875 C 282.609375 359.671875 359.671875 282.609375 359.671875 187.546875 C 359.671875 92.488281 282.609375 15.421875 187.546875 15.421875 " fill-opacity="1" fill-rule="nonzero"/></g><g clip-path="url(#id3)"><path fill="#ffffff" d="M 273.363281 97.714844 L 101.722656 97.714844 C 90.738281 97.714844 81.792969 106.667969 81.792969 117.664062 L 81.792969 257.613281 C 81.792969 268.609375 90.738281 277.566406 101.722656 277.566406 L 273.363281 277.566406 C 284.351562 277.566406 293.292969 268.609375 293.292969 257.613281 L 293.292969 117.664062 C 293.292969 106.667969 284.351562 97.714844 273.363281 97.714844 Z M 98.011719 117.664062 C 98.011719 115.644531 99.707031 113.949219 101.722656 113.949219 L 273.363281 113.949219 C 275.382812 113.949219 277.078125 115.644531 277.078125 117.664062 L 277.078125 120.25 L 189.453125 207.972656 C 188.414062 209.015625 186.675781 209.015625 185.632812 207.972656 L 98.011719 120.25 Z M 277.078125 257.636719 C 277.078125 259.65625 275.382812 261.351562 273.363281 261.351562 L 101.722656 261.351562 C 99.707031 261.351562 98.011719 259.65625 98.011719 257.636719 L 98.011719 143.203125 L 174.148438 219.425781 C 177.710938 222.992188 182.464844 224.96875 187.523438 224.96875 C 192.582031 224.96875 197.335938 223.011719 200.894531 219.425781 L 277.035156 143.203125 L 277.035156 257.636719 Z M 277.078125 257.636719 " fill-opacity="1" fill-rule="nonzero"/></g></svg>