<svg xmlns="http://www.w3.org/2000/svg" xmlns:xlink="http://www.w3.org/1999/xlink" width="500" zoomAndPan="magnify" viewBox="0 0 375 374.999991" height="500" preserveAspectRatio="xMidYMid meet" version="1.0"><defs><clipPath id="id1"><path d="M 15.421875 15.421875 L 359.671875 15.421875 L 359.671875 359.671875 L 15.421875 359.671875 Z M 15.421875 15.421875 " clip-rule="nonzero"/></clipPath><clipPath id="id2"><path d="M 104 52.972656 L 271 52.972656 L 271 322.222656 L 104 322.222656 Z M 104 52.972656 " clip-rule="nonzero"/></clipPath></defs><g clip-path="url(#id1)"><path fill="#e2b66c" d="M 187.546875 15.421875 C 92.488281 15.421875 15.421875 92.488281 15.421875 187.546875 C 15.421875 282.609375 92.488281 359.671875 187.546875 359.671875 C 282.609375 359.671875 359.671875 282.609375 359.671875 187.546875 C 359.671875 92.488281 282.609375 15.421875 187.546875 15.421875 " fill-opacity="1" fill-rule="nonzero"/></g><g clip-path="url(#id2)"><path fill="#ffffff" d="M 187.667969 52.972656 C 186.308594 52.976562 184.945312 53.011719 183.585938 53.082031 C 182.226562 53.148438 180.867188 53.25 179.511719 53.386719 C 178.160156 53.523438 176.808594 53.691406 175.460938 53.894531 C 174.113281 54.09375 172.773438 54.328125 171.4375 54.597656 C 170.101562 54.863281 168.773438 55.164062 167.453125 55.496094 C 166.132812 55.828125 164.824219 56.191406 163.519531 56.589844 C 162.21875 56.984375 160.925781 57.414062 159.644531 57.871094 C 158.363281 58.332031 157.09375 58.824219 155.835938 59.34375 C 154.578125 59.867188 153.332031 60.417969 152.101562 61 C 150.871094 61.582031 149.65625 62.195312 148.457031 62.835938 C 147.253906 63.480469 146.070312 64.152344 144.902344 64.851562 C 143.734375 65.550781 142.585938 66.277344 141.453125 67.035156 C 140.320312 67.789062 139.210938 68.574219 138.117188 69.386719 C 137.023438 70.195312 135.949219 71.03125 134.898438 71.894531 C 133.84375 72.757812 132.8125 73.648438 131.804688 74.558594 C 130.796875 75.472656 129.808594 76.410156 128.847656 77.375 C 127.882812 78.335938 126.945312 79.320312 126.03125 80.328125 C 125.117188 81.335938 124.226562 82.363281 123.363281 83.414062 C 122.5 84.46875 121.660156 85.539062 120.847656 86.628906 C 120.039062 87.722656 119.253906 88.835938 118.496094 89.964844 C 117.738281 91.09375 117.011719 92.242188 116.308594 93.410156 C 115.609375 94.574219 114.9375 95.757812 114.292969 96.957031 C 113.652344 98.15625 113.039062 99.371094 112.453125 100.601562 C 111.871094 101.828125 111.320312 103.070312 110.796875 104.328125 C 110.273438 105.582031 109.78125 106.851562 109.324219 108.132812 C 108.863281 109.410156 108.433594 110.703125 108.039062 112.003906 C 107.640625 113.304688 107.277344 114.613281 106.941406 115.933594 C 106.609375 117.253906 106.308594 118.578125 106.042969 119.914062 C 105.773438 121.246094 105.539062 122.585938 105.339844 123.929688 C 105.136719 125.277344 104.96875 126.625 104.832031 127.976562 C 104.695312 129.332031 104.59375 130.6875 104.523438 132.046875 C 104.457031 133.402344 104.417969 134.761719 104.417969 136.125 C 104.417969 163.839844 132.484375 210.246094 155.003906 243.03125 L 133.910156 243.03125 L 114.089844 322.222656 L 261.246094 322.222656 L 241.425781 243.03125 L 220.335938 243.03125 C 242.851562 210.246094 270.921875 163.839844 270.921875 136.125 C 270.917969 134.761719 270.882812 133.402344 270.8125 132.046875 C 270.742188 130.6875 270.640625 129.332031 270.503906 127.976562 C 270.371094 126.625 270.199219 125.277344 270 123.929688 C 269.796875 122.585938 269.5625 121.246094 269.292969 119.914062 C 269.027344 118.578125 268.726562 117.253906 268.394531 115.933594 C 268.0625 114.613281 267.695312 113.304688 267.300781 112.003906 C 266.902344 110.703125 266.476562 109.410156 266.015625 108.132812 C 265.554688 106.851562 265.0625 105.582031 264.542969 104.328125 C 264.019531 103.070312 263.464844 101.828125 262.882812 100.601562 C 262.300781 99.371094 261.6875 98.15625 261.042969 96.957031 C 260.402344 95.757812 259.730469 94.574219 259.027344 93.410156 C 258.328125 92.242188 257.597656 91.09375 256.839844 89.964844 C 256.085938 88.835938 255.300781 87.722656 254.488281 86.628906 C 253.675781 85.539062 252.839844 84.46875 251.976562 83.414062 C 251.109375 82.363281 250.222656 81.335938 249.308594 80.328125 C 248.390625 79.320312 247.453125 78.335938 246.492188 77.375 C 245.527344 76.410156 244.542969 75.472656 243.53125 74.558594 C 242.523438 73.648438 241.492188 72.757812 240.441406 71.894531 C 239.386719 71.03125 238.316406 70.195312 237.222656 69.386719 C 236.128906 68.574219 235.015625 67.789062 233.882812 67.035156 C 232.75 66.277344 231.601562 65.550781 230.433594 64.851562 C 229.265625 64.152344 228.082031 63.480469 226.882812 62.835938 C 225.679688 62.195312 224.464844 61.582031 223.234375 61 C 222.003906 60.417969 220.761719 59.867188 219.503906 59.34375 C 218.246094 58.824219 216.976562 58.332031 215.695312 57.871094 C 214.414062 57.414062 213.121094 56.984375 211.816406 56.589844 C 210.515625 56.191406 209.203125 55.828125 207.882812 55.496094 C 206.5625 55.164062 205.234375 54.863281 203.898438 54.597656 C 202.5625 54.328125 201.222656 54.09375 199.875 53.894531 C 198.53125 53.691406 197.179688 53.523438 195.824219 53.386719 C 194.46875 53.25 193.113281 53.148438 191.75 53.082031 C 190.390625 53.011719 189.03125 52.976562 187.667969 52.972656 Z M 229.058594 258.871094 L 240.949219 306.382812 L 134.386719 306.382812 L 146.28125 258.871094 L 165.945312 258.871094 C 173.554688 269.480469 179.421875 277.082031 181.800781 279.617188 L 188.144531 287.695312 L 194.488281 279.617188 C 196.390625 277.082031 202.257812 269.480469 210.34375 258.871094 Z M 187.667969 261.5625 C 164.359375 230.203125 120.273438 165.109375 120.273438 136.125 C 120.273438 135.023438 120.300781 133.921875 120.355469 132.820312 C 120.410156 131.71875 120.492188 130.621094 120.597656 129.527344 C 120.707031 128.429688 120.84375 127.335938 121.003906 126.246094 C 121.164062 125.15625 121.355469 124.070312 121.570312 122.992188 C 121.785156 121.910156 122.027344 120.835938 122.292969 119.769531 C 122.5625 118.699219 122.855469 117.636719 123.175781 116.582031 C 123.496094 115.53125 123.84375 114.484375 124.214844 113.445312 C 124.585938 112.410156 124.980469 111.382812 125.40625 110.363281 C 125.828125 109.347656 126.273438 108.339844 126.746094 107.34375 C 127.214844 106.347656 127.710938 105.363281 128.230469 104.390625 C 128.753906 103.421875 129.296875 102.460938 129.863281 101.519531 C 130.429688 100.574219 131.019531 99.644531 131.632812 98.726562 C 132.246094 97.8125 132.878906 96.910156 133.535156 96.027344 C 134.195312 95.140625 134.871094 94.273438 135.570312 93.421875 C 136.273438 92.570312 136.992188 91.734375 137.734375 90.917969 C 138.472656 90.101562 139.234375 89.304688 140.015625 88.527344 C 140.792969 87.746094 141.59375 86.988281 142.410156 86.25 C 143.226562 85.507812 144.0625 84.789062 144.914062 84.089844 C 145.765625 83.390625 146.636719 82.714844 147.523438 82.058594 C 148.40625 81.402344 149.308594 80.765625 150.226562 80.15625 C 151.144531 79.542969 152.074219 78.953125 153.019531 78.386719 C 153.96875 77.820312 154.925781 77.277344 155.898438 76.757812 C 156.871094 76.238281 157.855469 75.746094 158.855469 75.273438 C 159.851562 74.800781 160.859375 74.355469 161.878906 73.933594 C 162.898438 73.511719 163.925781 73.117188 164.964844 72.746094 C 166.003906 72.375 167.050781 72.027344 168.105469 71.710938 C 169.160156 71.390625 170.222656 71.097656 171.292969 70.828125 C 172.363281 70.5625 173.4375 70.320312 174.519531 70.105469 C 175.601562 69.890625 176.6875 69.699219 177.78125 69.539062 C 178.871094 69.378906 179.964844 69.242188 181.0625 69.136719 C 182.160156 69.027344 183.261719 68.945312 184.363281 68.890625 C 185.464844 68.839844 186.566406 68.8125 187.667969 68.8125 C 188.773438 68.8125 189.875 68.839844 190.976562 68.890625 C 192.078125 68.945312 193.175781 69.027344 194.273438 69.136719 C 195.371094 69.242188 196.464844 69.378906 197.558594 69.539062 C 198.648438 69.699219 199.734375 69.890625 200.816406 70.105469 C 201.898438 70.320312 202.972656 70.5625 204.042969 70.828125 C 205.113281 71.097656 206.175781 71.390625 207.230469 71.710938 C 208.289062 72.027344 209.335938 72.375 210.375 72.746094 C 211.410156 73.117188 212.441406 73.511719 213.460938 73.933594 C 214.476562 74.355469 215.488281 74.800781 216.484375 75.273438 C 217.480469 75.746094 218.464844 76.238281 219.4375 76.757812 C 220.410156 77.277344 221.371094 77.820312 222.316406 78.386719 C 223.261719 78.953125 224.195312 79.542969 225.109375 80.15625 C 226.027344 80.765625 226.929688 81.402344 227.816406 82.058594 C 228.703125 82.714844 229.570312 83.390625 230.421875 84.089844 C 231.277344 84.789062 232.109375 85.507812 232.929688 86.25 C 233.746094 86.988281 234.542969 87.746094 235.324219 88.527344 C 236.105469 89.304688 236.863281 90.101562 237.605469 90.917969 C 238.34375 91.734375 239.066406 92.570312 239.765625 93.421875 C 240.464844 94.273438 241.144531 95.140625 241.800781 96.027344 C 242.457031 96.910156 243.09375 97.8125 243.703125 98.726562 C 244.316406 99.644531 244.90625 100.574219 245.476562 101.519531 C 246.042969 102.460938 246.585938 103.421875 247.105469 104.390625 C 247.625 105.363281 248.121094 106.347656 248.59375 107.34375 C 249.0625 108.339844 249.511719 109.347656 249.933594 110.363281 C 250.355469 111.382812 250.75 112.410156 251.125 113.445312 C 251.496094 114.484375 251.839844 115.53125 252.160156 116.582031 C 252.480469 117.636719 252.773438 118.699219 253.042969 119.769531 C 253.3125 120.835938 253.554688 121.910156 253.769531 122.992188 C 253.984375 124.070312 254.171875 125.15625 254.332031 126.246094 C 254.496094 127.335938 254.628906 128.429688 254.738281 129.527344 C 254.847656 130.621094 254.925781 131.71875 254.980469 132.820312 C 255.035156 133.921875 255.0625 135.023438 255.0625 136.125 C 255.0625 165.109375 210.980469 230.203125 187.667969 261.5625 Z M 187.667969 261.5625 " fill-opacity="1" fill-rule="nonzero"/></g><path fill="#ffffff" d="M 187.667969 108.40625 C 186.628906 108.40625 185.59375 108.457031 184.558594 108.558594 C 183.527344 108.660156 182.5 108.8125 181.480469 109.015625 C 180.460938 109.21875 179.457031 109.46875 178.460938 109.769531 C 177.46875 110.070312 176.492188 110.421875 175.53125 110.816406 C 174.570312 111.214844 173.632812 111.65625 172.71875 112.148438 C 171.800781 112.636719 170.914062 113.167969 170.046875 113.746094 C 169.183594 114.320312 168.351562 114.9375 167.550781 115.597656 C 166.746094 116.253906 165.976562 116.949219 165.242188 117.683594 C 164.507812 118.417969 163.8125 119.1875 163.152344 119.988281 C 162.492188 120.789062 161.875 121.621094 161.296875 122.484375 C 160.722656 123.347656 160.1875 124.234375 159.699219 125.152344 C 159.207031 126.066406 158.765625 127.003906 158.367188 127.960938 C 157.96875 128.917969 157.621094 129.894531 157.320312 130.886719 C 157.019531 131.878906 156.765625 132.886719 156.5625 133.902344 C 156.359375 134.921875 156.207031 135.945312 156.105469 136.976562 C 156.003906 138.011719 155.953125 139.046875 155.953125 140.082031 C 155.953125 141.121094 156.003906 142.15625 156.105469 143.1875 C 156.207031 144.21875 156.359375 145.246094 156.5625 146.261719 C 156.765625 147.28125 157.019531 148.285156 157.320312 149.277344 C 157.621094 150.269531 157.96875 151.246094 158.367188 152.203125 C 158.765625 153.164062 159.207031 154.101562 159.699219 155.015625 C 160.1875 155.929688 160.722656 156.820312 161.296875 157.679688 C 161.875 158.542969 162.492188 159.375 163.152344 160.179688 C 163.8125 160.980469 164.507812 161.75 165.242188 162.480469 C 165.976562 163.214844 166.746094 163.910156 167.550781 164.570312 C 168.351562 165.226562 169.183594 165.84375 170.046875 166.421875 C 170.914062 166.996094 171.800781 167.53125 172.71875 168.019531 C 173.632812 168.507812 174.570312 168.953125 175.53125 169.347656 C 176.492188 169.746094 177.46875 170.09375 178.460938 170.394531 C 179.457031 170.695312 180.460938 170.949219 181.480469 171.152344 C 182.5 171.351562 183.527344 171.503906 184.558594 171.605469 C 185.59375 171.707031 186.628906 171.757812 187.667969 171.757812 C 188.707031 171.757812 189.742188 171.707031 190.777344 171.605469 C 191.8125 171.503906 192.835938 171.351562 193.855469 171.152344 C 194.875 170.949219 195.882812 170.695312 196.875 170.394531 C 197.867188 170.09375 198.847656 169.746094 199.804688 169.347656 C 200.765625 168.953125 201.703125 168.507812 202.617188 168.019531 C 203.535156 167.53125 204.425781 166.996094 205.289062 166.421875 C 206.152344 165.84375 206.984375 165.226562 207.789062 164.570312 C 208.589844 163.910156 209.359375 163.214844 210.09375 162.480469 C 210.828125 161.75 211.527344 160.980469 212.183594 160.179688 C 212.84375 159.375 213.460938 158.542969 214.039062 157.679688 C 214.617188 156.820312 215.148438 155.929688 215.640625 155.015625 C 216.128906 154.101562 216.570312 153.164062 216.96875 152.203125 C 217.367188 151.246094 217.714844 150.269531 218.019531 149.277344 C 218.320312 148.285156 218.570312 147.28125 218.773438 146.261719 C 218.976562 145.246094 219.128906 144.21875 219.230469 143.1875 C 219.332031 142.15625 219.382812 141.121094 219.382812 140.082031 C 219.382812 139.046875 219.332031 138.011719 219.230469 136.976562 C 219.128906 135.945312 218.976562 134.921875 218.773438 133.902344 C 218.570312 132.886719 218.320312 131.878906 218.019531 130.886719 C 217.714844 129.894531 217.367188 128.917969 216.96875 127.960938 C 216.570312 127.003906 216.128906 126.066406 215.640625 125.152344 C 215.148438 124.234375 214.617188 123.347656 214.039062 122.484375 C 213.460938 121.621094 212.84375 120.789062 212.183594 119.988281 C 211.527344 119.1875 210.828125 118.417969 210.09375 117.683594 C 209.359375 116.949219 208.589844 116.253906 207.789062 115.597656 C 206.984375 114.9375 206.152344 114.320312 205.289062 113.746094 C 204.425781 113.167969 203.535156 112.636719 202.617188 112.148438 C 201.703125 111.65625 200.765625 111.214844 199.804688 110.816406 C 198.847656 110.421875 197.867188 110.070312 196.875 109.769531 C 195.882812 109.46875 194.875 109.21875 193.855469 109.015625 C 192.835938 108.8125 191.8125 108.660156 190.777344 108.558594 C 189.742188 108.457031 188.707031 108.40625 187.667969 108.40625 Z M 187.667969 155.921875 C 187.148438 155.921875 186.632812 155.894531 186.113281 155.84375 C 185.597656 155.792969 185.085938 155.71875 184.574219 155.617188 C 184.066406 155.515625 183.5625 155.390625 183.066406 155.238281 C 182.570312 155.089844 182.082031 154.914062 181.601562 154.714844 C 181.121094 154.515625 180.652344 154.296875 180.195312 154.050781 C 179.734375 153.804688 179.289062 153.539062 178.859375 153.253906 C 178.425781 152.964844 178.011719 152.65625 177.609375 152.324219 C 177.207031 151.996094 176.824219 151.648438 176.457031 151.28125 C 176.089844 150.914062 175.738281 150.53125 175.410156 150.128906 C 175.082031 149.730469 174.773438 149.3125 174.484375 148.882812 C 174.195312 148.449219 173.929688 148.007812 173.683594 147.550781 C 173.4375 147.089844 173.21875 146.625 173.019531 146.144531 C 172.820312 145.664062 172.644531 145.175781 172.492188 144.679688 C 172.34375 144.183594 172.21875 143.683594 172.117188 143.171875 C 172.015625 142.664062 171.9375 142.152344 171.886719 141.636719 C 171.835938 141.121094 171.8125 140.601562 171.8125 140.082031 C 171.8125 139.5625 171.835938 139.046875 171.886719 138.53125 C 171.9375 138.015625 172.015625 137.5 172.117188 136.992188 C 172.21875 136.484375 172.34375 135.980469 172.492188 135.484375 C 172.644531 134.988281 172.820312 134.5 173.019531 134.023438 C 173.21875 133.542969 173.4375 133.074219 173.683594 132.617188 C 173.929688 132.160156 174.195312 131.714844 174.484375 131.285156 C 174.773438 130.851562 175.082031 130.4375 175.410156 130.035156 C 175.738281 129.632812 176.089844 129.25 176.457031 128.882812 C 176.824219 128.515625 177.207031 128.167969 177.609375 127.839844 C 178.011719 127.511719 178.425781 127.203125 178.859375 126.914062 C 179.289062 126.625 179.734375 126.359375 180.195312 126.113281 C 180.652344 125.871094 181.121094 125.648438 181.601562 125.449219 C 182.082031 125.25 182.570312 125.078125 183.066406 124.925781 C 183.5625 124.777344 184.066406 124.648438 184.574219 124.550781 C 185.085938 124.449219 185.597656 124.371094 186.113281 124.320312 C 186.632812 124.269531 187.148438 124.246094 187.667969 124.246094 C 188.1875 124.246094 188.707031 124.269531 189.222656 124.320312 C 189.738281 124.371094 190.253906 124.449219 190.761719 124.550781 C 191.273438 124.648438 191.773438 124.777344 192.273438 124.925781 C 192.769531 125.078125 193.257812 125.25 193.738281 125.449219 C 194.21875 125.648438 194.6875 125.871094 195.144531 126.113281 C 195.601562 126.359375 196.046875 126.625 196.480469 126.914062 C 196.910156 127.203125 197.328125 127.511719 197.730469 127.839844 C 198.128906 128.167969 198.515625 128.515625 198.882812 128.882812 C 199.25 129.25 199.597656 129.632812 199.925781 130.035156 C 200.257812 130.4375 200.566406 130.851562 200.855469 131.285156 C 201.140625 131.714844 201.410156 132.160156 201.652344 132.617188 C 201.898438 133.074219 202.121094 133.542969 202.320312 134.023438 C 202.519531 134.5 202.691406 134.988281 202.84375 135.484375 C 202.992188 135.980469 203.121094 136.484375 203.222656 136.992188 C 203.324219 137.5 203.398438 138.015625 203.449219 138.53125 C 203.5 139.046875 203.527344 139.5625 203.527344 140.082031 C 203.527344 140.601562 203.5 141.121094 203.449219 141.636719 C 203.398438 142.152344 203.324219 142.664062 203.222656 143.171875 C 203.121094 143.683594 202.992188 144.183594 202.84375 144.679688 C 202.691406 145.175781 202.519531 145.664062 202.320312 146.144531 C 202.121094 146.625 201.898438 147.089844 201.652344 147.550781 C 201.410156 148.007812 201.140625 148.449219 200.855469 148.882812 C 200.566406 149.3125 200.257812 149.730469 199.925781 150.128906 C 199.597656 150.53125 199.25 150.914062 198.882812 151.28125 C 198.515625 151.648438 198.128906 151.996094 197.730469 152.324219 C 197.328125 152.65625 196.910156 152.964844 196.480469 153.253906 C 196.046875 153.539062 195.601562 153.804688 195.144531 154.050781 C 194.6875 154.296875 194.21875 154.515625 193.738281 154.714844 C 193.257812 154.914062 192.769531 155.089844 192.273438 155.238281 C 191.773438 155.390625 191.273438 155.515625 190.761719 155.617188 C 190.253906 155.71875 189.738281 155.792969 189.222656 155.84375 C 188.707031 155.894531 188.1875 155.921875 187.667969 155.921875 Z M 187.667969 155.921875 " fill-opacity="1" fill-rule="nonzero"/></svg>