<svg xmlns="http://www.w3.org/2000/svg" xmlns:xlink="http://www.w3.org/1999/xlink" width="500" zoomAndPan="magnify" viewBox="0 0 375 374.999991" height="500" preserveAspectRatio="xMidYMid meet" version="1.0"><defs><clipPath id="id1"><path d="M 15.421875 15.421875 L 359.671875 15.421875 L 359.671875 359.671875 L 15.421875 359.671875 Z M 15.421875 15.421875 " clip-rule="nonzero"/></clipPath><clipPath id="id2"><path d="M 69 68.648438 L 306.398438 68.648438 L 306.398438 306.398438 L 69 306.398438 Z M 69 68.648438 " clip-rule="nonzero"/></clipPath></defs><g clip-path="url(#id1)"><path fill="#e2b66c" d="M 187.546875 15.421875 C 92.488281 15.421875 15.421875 92.484375 15.421875 187.546875 C 15.421875 282.609375 92.488281 359.671875 187.546875 359.671875 C 282.609375 359.671875 359.671875 282.609375 359.671875 187.546875 C 359.671875 92.484375 282.609375 15.421875 187.546875 15.421875 " fill-opacity="1" fill-rule="nonzero"/></g><g clip-path="url(#id2)"><path fill="#ffffff" d="M 271.925781 103.242188 C 249.695312 80.894531 220.097656 68.648438 188.59375 68.648438 C 123.6875 68.648438 70.789062 121.546875 70.789062 186.453125 C 70.789062 207.257812 76.257812 227.464844 86.480469 245.296875 L 69.839844 306.398438 L 132.246094 289.996094 C 149.484375 299.386719 168.859375 304.378906 188.59375 304.378906 C 253.5 304.378906 306.398438 251.480469 306.398438 186.574219 C 306.398438 155.070312 294.15625 125.472656 271.925781 103.242188 Z M 188.59375 284.40625 C 171 284.40625 153.765625 279.652344 138.667969 270.738281 L 135.101562 268.597656 L 98.011719 278.34375 L 107.878906 242.207031 L 105.5 238.523438 C 95.753906 222.949219 90.523438 204.878906 90.523438 186.453125 C 90.523438 132.484375 134.507812 88.5 188.476562 88.5 C 214.628906 88.5 239.234375 98.722656 257.660156 117.269531 C 276.203125 135.8125 286.308594 160.421875 286.308594 186.574219 C 286.546875 240.542969 242.5625 284.40625 188.59375 284.40625 Z M 242.324219 211.179688 C 239.355469 209.753906 224.851562 202.621094 222.234375 201.550781 C 219.5 200.601562 217.597656 200.125 215.578125 202.976562 C 213.558594 205.949219 207.96875 212.605469 206.304688 214.507812 C 204.640625 216.53125 202.859375 216.765625 199.886719 215.222656 C 196.914062 213.796875 187.40625 210.585938 176.230469 200.601562 C 167.433594 192.753906 161.609375 183.125 159.828125 180.152344 C 158.160156 177.183594 159.589844 175.636719 161.132812 174.089844 C 162.441406 172.785156 164.105469 170.644531 165.53125 168.980469 C 166.957031 167.316406 167.554688 166.007812 168.503906 164.105469 C 169.457031 162.085938 168.980469 160.421875 168.265625 158.992188 C 167.554688 157.566406 161.609375 143.066406 159.230469 137.121094 C 156.855469 131.414062 154.359375 132.128906 152.574219 132.007812 C 150.792969 132.007812 148.890625 132.007812 146.867188 132.007812 C 144.847656 132.007812 141.757812 132.722656 139.023438 135.695312 C 136.40625 138.667969 128.800781 145.800781 128.800781 160.300781 C 128.800781 174.804688 139.378906 188.832031 140.804688 190.734375 C 142.234375 192.753906 161.609375 222.472656 191.089844 235.191406 C 198.105469 238.285156 203.574219 240.066406 207.851562 241.375 C 214.867188 243.632812 221.285156 243.277344 226.394531 242.5625 C 232.101562 241.730469 243.871094 235.429688 246.25 228.535156 C 248.746094 221.640625 248.746094 215.816406 247.914062 214.507812 C 247.082031 213.199219 245.296875 212.605469 242.324219 211.179688 Z M 242.324219 211.179688 " fill-opacity="1" fill-rule="nonzero"/></g></svg>